<!-- Generated by IcoMoon.io -->
<svg version="1.1" xmlns="http://www.w3.org/2000/svg" width="48" height="48" viewBox="0 0 48 48">
<title>camera-off</title>
<path d="M47.413 44.588l-3.988-3.988c0 0-0.013-0.013-0.013-0.013l-11.413-11.413c-0.013-0.013-0.037-0.038-0.050-0.050l-18.538-18.538c0 0 0 0-0.013-0.013l-10-10c-0.775-0.775-2.050-0.775-2.825 0s-0.775 2.050 0 2.825l6.6 6.6h-1.175c-3.313 0-6 2.687-6 6v22c0 3.313 2.687 6 6 6h35.175l3.413 3.412c0.388 0.388 0.9 0.587 1.412 0.587s1.025-0.2 1.412-0.587c0.787-0.775 0.787-2.050 0-2.825zM19.363 22.187l8.45 8.45c-1.075 0.9-2.425 1.4-3.85 1.4-3.313 0-6-2.687-6-6 0-1.425 0.5-2.775 1.4-3.85zM6 40c-1.1 0-2-0.9-2-2v-22c0-1.1 0.9-2 2-2h5.175l5.35 5.35c-1.637 1.813-2.563 4.187-2.563 6.688 0 5.513 4.487 10 10 10 2.488 0 4.862-0.938 6.688-2.575l6.525 6.525h-31.175z"></path>
<path d="M18 8h10.925l3.4 5.113c0.375 0.563 1 0.887 1.663 0.887h8c1.1 0 2 0.9 2 2v18.675c0 1.1 0.9 2 2 2s2-0.9 2-2v-18.675c0-3.313-2.687-6-6-6h-6.925l-3.4-5.113c-0.375-0.563-1-0.887-1.663-0.887h-12c-1.1 0-2 0.9-2 2s0.9 2 2 2z"></path>
</svg>
